<?xml version="1.0" encoding="UTF-8" standalone="no"?>
<!-- Created with Inkscape (http://www.inkscape.org/) -->

<svg
   version="1.1"
   id="svg2"
   width="208.88933"
   height="210.22267"
   viewBox="0 0 208.88933 210.22267"
   sodipodi:docname="logo_madamekarine.ai"
   xmlns:inkscape="http://www.inkscape.org/namespaces/inkscape"
   xmlns:sodipodi="http://sodipodi.sourceforge.net/DTD/sodipodi-0.dtd"
   xmlns="http://www.w3.org/2000/svg"
   xmlns:svg="http://www.w3.org/2000/svg">
  <defs
     id="defs6">
    <clipPath
       clipPathUnits="userSpaceOnUse"
       id="clipPath18">
      <path
         d="M 0,157.667 H 156.667 V 0 H 0 Z"
         id="path16" />
    </clipPath>
  </defs>
  <sodipodi:namedview
     id="namedview4"
     pagecolor="#ffffff"
     bordercolor="#000000"
     borderopacity="0.25"
     inkscape:showpageshadow="2"
     inkscape:pageopacity="0.0"
     inkscape:pagecheckerboard="0"
     inkscape:deskcolor="#d1d1d1" />
  <g
     id="g8"
     inkscape:groupmode="layer"
     inkscape:label="logo_madamekarine"
     transform="matrix(1.3333333,0,0,-1.3333333,0,210.22267)">
    <path
       d="m 3.667,3.333 h 150 v 151.642 h -150 z"
       style="fill:#ff386f;fill-opacity:1;fill-rule:nonzero;stroke:none"
       id="path10" />
    <g
       id="g12">
      <g
         id="g14"
         clip-path="url(#clipPath18)">
        <g
           id="g20"
           transform="translate(23.7355,132.4598)">
          <path
             d="m 0,0 c 0.027,0.189 0.135,0.162 0.243,0.027 l 8.799,-9.879 8.666,9.879 C 17.815,0.162 17.923,0.189 17.95,0 l 1.08,-18.544 h -4.832 l -0.432,7.828 -4.589,-5.318 c -0.081,-0.081 -0.162,-0.081 -0.243,0 l -4.777,5.345 -0.432,-7.855 H -1.08 Z"
             style="fill:#ffffff;fill-opacity:1;fill-rule:nonzero;stroke:none"
             id="path22" />
        </g>
        <g
           id="g24"
           transform="translate(53.1364,123.4173)">
          <path
             d="M 0,0 -1.835,-4.265 H 1.89 Z M -4.075,-9.501 H -8.88 L 0.055,9.178 c 0.081,0.189 0.242,0.189 0.323,0 L 9.286,-9.501 H 4.211 L 3.51,-7.936 H -3.4 Z"
             style="fill:#ffffff;fill-opacity:1;fill-rule:nonzero;stroke:none"
             id="path26" />
        </g>
        <g
           id="g28"
           transform="translate(70.7946,118.0726)">
          <path
             d="m 0,0 c 2.97,0 4.806,1.971 4.806,5.021 0,3.05 -1.836,5.02 -4.806,5.02 H -1.646 V 0 Z M -6.559,14.198 H 0.54 c 5.291,0 9.286,-3.482 9.286,-9.177 0,-5.696 -3.995,-9.178 -9.286,-9.178 h -7.099 z"
             style="fill:#ffffff;fill-opacity:1;fill-rule:nonzero;stroke:none"
             id="path30" />
        </g>
        <g
           id="g32"
           transform="translate(89.0192,123.4173)">
          <path
             d="M 0,0 -1.835,-4.265 H 1.89 Z M -4.075,-9.501 H -8.88 L 0.055,9.178 c 0.081,0.189 0.242,0.189 0.323,0 L 9.286,-9.501 H 4.211 L 3.51,-7.936 H -3.4 Z"
             style="fill:#ffffff;fill-opacity:1;fill-rule:nonzero;stroke:none"
             id="path34" />
        </g>
        <g
           id="g36"
           transform="translate(100.8473,132.4598)">
          <path
             d="m 0,0 c 0.027,0.189 0.135,0.162 0.243,0.027 l 8.799,-9.879 8.665,9.879 C 17.815,0.162 17.923,0.189 17.95,0 l 1.08,-18.544 h -4.832 l -0.431,7.828 -4.589,-5.318 c -0.081,-0.081 -0.162,-0.081 -0.243,0 l -4.778,5.345 -0.432,-7.855 H -1.08 Z"
             style="fill:#ffffff;fill-opacity:1;fill-rule:nonzero;stroke:none"
             id="path38" />
        </g>
        <g
           id="g40"
           transform="translate(122.7175,132.2708)">
          <path
             d="M 0,0 H 12.875 V -4.13 H 4.912 v -4.265 h 6.641 v -3.914 H 4.912 v -1.916 h 8.341 v -4.13 H 0 Z"
             style="fill:#ffffff;fill-opacity:1;fill-rule:nonzero;stroke:none"
             id="path42" />
        </g>
        <g
           id="g44"
           transform="translate(42.1471,106.8636)">
          <path
             d="m 0,0 h 5.317 l -6.1,-7.963 6.829,-10.392 H 0.243 l -4.373,6.667 c 0.027,0 -1.025,-1.269 -1.539,-1.889 v -4.778 h -4.912 V 0 h 4.912 v -7.612 z"
             style="fill:#ffffff;fill-opacity:1;fill-rule:nonzero;stroke:none"
             id="path46" />
        </g>
        <g
           id="g48"
           transform="translate(57.78,98.0101)">
          <path
             d="M 0,0 -1.835,-4.265 H 1.89 Z M -4.075,-9.501 H -8.88 L 0.055,9.178 c 0.081,0.189 0.242,0.189 0.323,0 L 9.286,-9.501 H 4.211 L 3.51,-7.936 H -3.4 Z"
             style="fill:#ffffff;fill-opacity:1;fill-rule:nonzero;stroke:none"
             id="path50" />
        </g>
        <g
           id="g52"
           transform="translate(75.6003,96.6336)">
          <path
             d="M 0,0 C 2.214,0 3.023,1.242 3.023,3.023 3.023,4.805 2.214,6.073 0,6.073 H -1.809 V 0 Z M 7.909,-8.125 H 2.592 L 0.027,-3.914 H -1.809 V -8.125 H -6.721 V 10.23 h 6.964 c 4.94,0 7.72,-3.131 7.72,-7.207 0,-2.645 -1.16,-4.751 -3.32,-5.939 z"
             style="fill:#ffffff;fill-opacity:1;fill-rule:nonzero;stroke:none"
             id="path54" />
        </g>
        <path
           d="m 86.105,106.864 h 4.913 V 88.509 h -4.913 z"
           style="fill:#ffffff;fill-opacity:1;fill-rule:nonzero;stroke:none"
           id="path56" />
        <g
           id="g58"
           transform="translate(99.0368,97.659)">
          <path
             d="M 0,0 V -9.15 H -4.615 V 9.448 c 0,0.161 0.081,0.297 0.378,0.053 L 7.288,0 v 9.205 h 4.616 V -9.42 c 0,-0.216 -0.081,-0.297 -0.378,-0.054 z"
             style="fill:#ffffff;fill-opacity:1;fill-rule:nonzero;stroke:none"
             id="path60" />
        </g>
        <g
           id="g62"
           transform="translate(114.2663,106.8636)">
          <path
             d="M 0,0 H 12.875 V -4.13 H 4.912 v -4.265 h 6.641 v -3.914 H 4.912 v -1.916 h 8.341 v -4.13 H 0 Z"
             style="fill:#ffffff;fill-opacity:1;fill-rule:nonzero;stroke:none"
             id="path64" />
        </g>
        <g
           id="g66"
           transform="translate(47.9567,60.054)">
          <path
             d="m 0,0 h 0.89 c 0.929,0 1.519,0.51 1.519,1.279 0,0.869 -0.63,1.248 -1.55,1.259 C 0.44,2.538 0.14,2.498 0,2.458 Z M -0.869,3.068 C -0.43,3.158 0.2,3.207 0.8,3.207 c 0.929,0 1.529,-0.17 1.949,-0.549 0.34,-0.301 0.529,-0.76 0.529,-1.279 0,-0.89 -0.559,-1.48 -1.269,-1.719 v -0.031 c 0.519,-0.18 0.83,-0.658 0.99,-1.358 0.22,-0.94 0.379,-1.589 0.52,-1.849 h -0.9 c -0.11,0.189 -0.26,0.769 -0.45,1.608 -0.2,0.93 -0.56,1.28 -1.35,1.31 H 0 v -2.918 h -0.869 z"
             style="fill:#ffffff;fill-opacity:1;fill-rule:nonzero;stroke:none"
             id="path68" />
        </g>
        <g
           id="g70"
           transform="translate(56.1559,59.6341)">
          <path
             d="M 0,0 H -2.619 V -2.43 H 0.3 V -3.158 H -3.488 V 3.578 H 0.149 V 2.848 H -2.619 V 0.719 l 2.619,0 z"
             style="fill:#ffffff;fill-opacity:1;fill-rule:nonzero;stroke:none"
             id="path72" />
        </g>
        <g
           id="g74"
           transform="translate(62.4948,56.6947)">
          <path
             d="m 0,0 c -0.319,-0.159 -0.959,-0.319 -1.779,-0.319 -1.899,0 -3.328,1.2 -3.328,3.408 0,2.108 1.429,3.538 3.518,3.538 0.84,0 1.369,-0.18 1.599,-0.3 l -0.209,-0.71 c -0.33,0.16 -0.8,0.28 -1.36,0.28 -1.579,0 -2.628,-1.008 -2.628,-2.778 0,-1.649 0.949,-2.709 2.588,-2.709 0.53,0 1.07,0.111 1.419,0.28 z"
             style="fill:#ffffff;fill-opacity:1;fill-rule:nonzero;stroke:none"
             id="path76" />
        </g>
        <g
           id="g78"
           transform="translate(64.6559,63.2122)">
          <path
             d="M 0,0 V -2.818 H 3.259 V 0 H 4.138 V -6.736 H 3.259 v 3.158 H 0 V -6.736 H -0.869 V 0 Z"
             style="fill:#ffffff;fill-opacity:1;fill-rule:nonzero;stroke:none"
             id="path80" />
        </g>
        <g
           id="g82"
           transform="translate(73.9958,59.6341)">
          <path
             d="M 0,0 H -2.619 V -2.43 H 0.3 V -3.158 H -3.488 V 3.578 H 0.149 V 2.848 H -2.619 V 0.719 l 2.619,0 z"
             style="fill:#ffffff;fill-opacity:1;fill-rule:nonzero;stroke:none"
             id="path84" />
        </g>
        <g
           id="g86"
           transform="translate(76.4958,60.054)">
          <path
             d="m 0,0 h 0.89 c 0.929,0 1.519,0.51 1.519,1.279 0,0.869 -0.63,1.248 -1.55,1.259 C 0.44,2.538 0.14,2.498 0,2.458 Z M -0.869,3.068 C -0.43,3.158 0.2,3.207 0.8,3.207 c 0.929,0 1.529,-0.17 1.949,-0.549 0.34,-0.301 0.529,-0.76 0.529,-1.279 0,-0.89 -0.559,-1.48 -1.269,-1.719 v -0.031 c 0.519,-0.18 0.83,-0.658 0.99,-1.358 0.22,-0.94 0.379,-1.589 0.52,-1.849 h -0.9 c -0.11,0.189 -0.26,0.769 -0.45,1.608 -0.2,0.93 -0.56,1.28 -1.35,1.31 H 0 v -2.918 h -0.869 z"
             style="fill:#ffffff;fill-opacity:1;fill-rule:nonzero;stroke:none"
             id="path88" />
        </g>
        <g
           id="g90"
           transform="translate(85.9342,56.6947)">
          <path
             d="m 0,0 c -0.319,-0.159 -0.959,-0.319 -1.779,-0.319 -1.899,0 -3.328,1.2 -3.328,3.408 0,2.108 1.429,3.538 3.518,3.538 0.84,0 1.369,-0.18 1.599,-0.3 l -0.209,-0.71 c -0.33,0.16 -0.8,0.28 -1.36,0.28 -1.579,0 -2.628,-1.008 -2.628,-2.778 0,-1.649 0.949,-2.709 2.588,-2.709 0.53,0 1.07,0.111 1.419,0.28 z"
             style="fill:#ffffff;fill-opacity:1;fill-rule:nonzero;stroke:none"
             id="path92" />
        </g>
        <g
           id="g94"
           transform="translate(88.0964,63.2122)">
          <path
             d="M 0,0 V -2.818 H 3.259 V 0 H 4.138 V -6.736 H 3.259 v 3.158 H 0 V -6.736 H -0.869 V 0 Z"
             style="fill:#ffffff;fill-opacity:1;fill-rule:nonzero;stroke:none"
             id="path96" />
        </g>
        <path
           d="m 94.806,56.476 h -0.869 v 6.736 h 0.869 z"
           style="fill:#ffffff;fill-opacity:1;fill-rule:nonzero;stroke:none"
           id="path98" />
        <g
           id="g100"
           transform="translate(96.3971,57.5345)">
          <path
             d="m 0,0 c 0.39,-0.24 0.959,-0.439 1.56,-0.439 0.888,0 1.409,0.469 1.409,1.149 0,0.63 -0.361,0.989 -1.27,1.339 -1.099,0.39 -1.779,0.96 -1.779,1.909 0,1.05 0.87,1.829 2.179,1.829 0.689,0 1.189,-0.16 1.489,-0.33 L 3.349,4.748 C 3.128,4.867 2.679,5.067 2.069,5.067 1.149,5.067 0.8,4.518 0.8,4.059 0.8,3.428 1.209,3.119 2.139,2.759 3.278,2.318 3.857,1.77 3.857,0.779 c 0,-1.039 -0.769,-1.938 -2.358,-1.938 -0.649,0 -1.359,0.19 -1.719,0.43 z"
             style="fill:#ffffff;fill-opacity:1;fill-rule:nonzero;stroke:none"
             id="path102" />
        </g>
        <g
           id="g104"
           transform="translate(102.9157,62.472)">
          <path
             d="M 0,0 H -2.049 V 0.74 H 2.938 V 0 H 0.879 V -5.996 H 0 Z"
             style="fill:#ffffff;fill-opacity:1;fill-rule:nonzero;stroke:none"
             id="path106" />
        </g>
        <g
           id="g108"
           transform="translate(110.2946,59.6341)">
          <path
             d="M 0,0 H -2.619 V -2.43 H 0.3 V -3.158 H -3.488 V 3.578 H 0.149 V 2.848 H -2.619 V 0.719 l 2.619,0 z"
             style="fill:#ffffff;fill-opacity:1;fill-rule:nonzero;stroke:none"
             id="path110" />
        </g>
        <g
           id="g112"
           transform="translate(48.0759,44.8743)">
          <path
             d="m 0,0 -0.659,1.938 c -0.151,0.441 -0.25,0.84 -0.351,1.23 h -0.019 c -0.1,-0.4 -0.21,-0.81 -0.34,-1.219 L -2.028,0 Z m -2.209,-0.68 -0.699,-2.119 h -0.9 l 2.289,6.737 H -0.47 L 1.829,-2.799 H 0.899 L 0.18,-0.68 Z"
             style="fill:#ffffff;fill-opacity:1;fill-rule:nonzero;stroke:none"
             id="path114" />
        </g>
        <g
           id="g116"
           transform="translate(51.6872,48.8118)">
          <path
             d="m 0,0 v -3.988 c 0,-1.509 0.67,-2.149 1.569,-2.149 0.999,0 1.639,0.66 1.639,2.149 V 0 h 0.88 v -3.928 c 0,-2.068 -1.089,-2.918 -2.549,-2.918 -1.379,0 -2.418,0.789 -2.418,2.878 V 0 Z"
             style="fill:#ffffff;fill-opacity:1;fill-rule:nonzero;stroke:none"
             id="path118" />
        </g>
        <g
           id="g120"
           transform="translate(58.3571,42.765)">
          <path
             d="m 0,0 c 0.22,-0.04 0.54,-0.05 0.88,-0.05 1.858,0 2.868,1.04 2.868,2.859 C 3.758,4.398 2.858,5.407 1.02,5.407 0.57,5.407 0.23,5.367 0,5.317 Z m -0.869,5.957 c 0.529,0.08 1.159,0.14 1.848,0.14 1.25,0 2.139,-0.29 2.729,-0.839 0.6,-0.551 0.949,-1.33 0.949,-2.42 C 4.657,1.739 4.317,0.84 3.688,0.221 3.059,-0.41 2.02,-0.75 0.71,-0.75 c -0.62,0 -1.14,0.031 -1.579,0.08 z"
             style="fill:#ffffff;fill-opacity:1;fill-rule:nonzero;stroke:none"
             id="path122" />
        </g>
        <path
           d="m 65.216,42.076 h -0.869 v 6.736 h 0.869 z"
           style="fill:#ffffff;fill-opacity:1;fill-rule:nonzero;stroke:none"
           id="path124" />
        <g
           id="g126"
           transform="translate(67.4567,45.4036)">
          <path
             d="m 0,0 c 0,-1.439 0.78,-2.729 2.149,-2.729 1.379,0 2.159,1.27 2.159,2.799 0,1.339 -0.7,2.739 -2.149,2.739 C 0.72,2.809 0,1.479 0,0 m 5.228,0.109 c 0,-2.318 -1.41,-3.547 -3.129,-3.547 -1.779,0 -3.029,1.379 -3.029,3.418 0,2.139 1.33,3.538 3.129,3.538 1.839,0 3.029,-1.409 3.029,-3.409"
             style="fill:#ffffff;fill-opacity:1;fill-rule:nonzero;stroke:none"
             id="path128" />
        </g>
        <g
           id="g130"
           transform="translate(75.4967,42.0755)">
          <path
             d="M 0,0 -2.199,6.736 H -1.26 L -0.21,3.418 C 0.079,2.509 0.329,1.689 0.509,0.899 h 0.02 c 0.19,0.781 0.47,1.63 0.77,2.509 L 2.438,6.736 H 3.367 L 0.959,0 Z"
             style="fill:#ffffff;fill-opacity:1;fill-rule:nonzero;stroke:none"
             id="path132" />
        </g>
        <path
           d="m 80.657,42.076 h -0.869 v 6.736 h 0.869 z"
           style="fill:#ffffff;fill-opacity:1;fill-rule:nonzero;stroke:none"
           id="path134" />
        <g
           id="g136"
           transform="translate(82.2575,43.1351)">
          <path
             d="m 0,0 c 0.39,-0.24 0.96,-0.44 1.56,-0.44 0.888,0 1.409,0.47 1.409,1.15 0,0.629 -0.361,0.988 -1.27,1.339 -1.099,0.389 -1.779,0.96 -1.779,1.909 0,1.049 0.87,1.828 2.179,1.828 0.689,0 1.189,-0.159 1.489,-0.329 L 3.349,4.747 c -0.221,0.12 -0.67,0.32 -1.28,0.32 -0.92,0 -1.269,-0.549 -1.269,-1.009 0,-0.63 0.409,-0.94 1.339,-1.299 1.139,-0.441 1.718,-0.99 1.718,-1.98 0,-1.039 -0.769,-1.938 -2.358,-1.938 -0.649,0 -1.359,0.189 -1.719,0.43 z"
             style="fill:#ffffff;fill-opacity:1;fill-rule:nonzero;stroke:none"
             id="path138" />
        </g>
        <g
           id="g140"
           transform="translate(88.3669,48.8118)">
          <path
             d="m 0,0 v -3.988 c 0,-1.509 0.67,-2.149 1.569,-2.149 0.999,0 1.639,0.66 1.639,2.149 V 0 h 0.88 v -3.928 c 0,-2.068 -1.089,-2.918 -2.549,-2.918 -1.379,0 -2.418,0.789 -2.418,2.878 V 0 Z"
             style="fill:#ffffff;fill-opacity:1;fill-rule:nonzero;stroke:none"
             id="path142" />
        </g>
        <g
           id="g144"
           transform="translate(97.6559,45.2337)">
          <path
             d="M 0,0 H -2.619 V -2.429 H 0.3 V -3.158 H -3.488 V 3.578 H 0.149 V 2.849 H -2.619 V 0.72 L 0,0.72 Z"
             style="fill:#ffffff;fill-opacity:1;fill-rule:nonzero;stroke:none"
             id="path146" />
        </g>
        <g
           id="g148"
           transform="translate(99.2878,48.8118)">
          <path
             d="M 0,0 H 0.869 V -6.007 H 3.748 V -6.736 H 0 Z"
             style="fill:#ffffff;fill-opacity:1;fill-rule:nonzero;stroke:none"
             id="path150" />
        </g>
        <g
           id="g152"
           transform="translate(104.2077,48.8118)">
          <path
             d="M 0,0 H 0.869 V -6.007 H 3.748 V -6.736 H 0 Z"
             style="fill:#ffffff;fill-opacity:1;fill-rule:nonzero;stroke:none"
             id="path154" />
        </g>
        <g
           id="g156"
           transform="translate(112.6149,45.2337)">
          <path
             d="M 0,0 H -2.619 V -2.429 H 0.3 V -3.158 H -3.488 V 3.578 H 0.149 V 2.849 H -2.619 V 0.72 L 0,0.72 Z"
             style="fill:#ffffff;fill-opacity:1;fill-rule:nonzero;stroke:none"
             id="path158" />
        </g>
        <g
           id="g160"
           transform="translate(43.5446,30.6341)">
          <path
             d="M 0,0 C -0.05,0.939 -0.11,2.069 -0.1,2.908 H -0.13 C -0.36,2.119 -0.64,1.279 -0.979,0.351 l -1.19,-3.269 h -0.659 l -1.09,3.208 c -0.319,0.949 -0.59,1.819 -0.779,2.618 H -4.718 C -4.737,2.069 -4.787,0.939 -4.848,-0.069 l -0.179,-2.889 h -0.829 l 0.469,6.736 h 1.11 l 1.149,-3.257 c 0.279,-0.831 0.51,-1.57 0.68,-2.27 h 0.029 c 0.17,0.68 0.41,1.42 0.71,2.27 L -0.51,3.778 H 0.6 L 1.02,-2.958 H 0.17 Z"
             style="fill:#ffffff;fill-opacity:1;fill-rule:nonzero;stroke:none"
             id="path162" />
        </g>
        <g
           id="g164"
           transform="translate(49.5964,30.8343)">
          <path
             d="M 0,0 H -2.619 V -2.429 H 0.3 V -3.158 H -3.488 V 3.578 H 0.149 V 2.849 H -2.619 V 0.72 L 0,0.72 Z"
             style="fill:#ffffff;fill-opacity:1;fill-rule:nonzero;stroke:none"
             id="path166" />
        </g>
        <g
           id="g168"
           transform="translate(56.904,30.6341)">
          <path
             d="M 0,0 C -0.05,0.939 -0.11,2.069 -0.1,2.908 H -0.13 C -0.36,2.119 -0.64,1.279 -0.979,0.351 l -1.19,-3.269 h -0.659 l -1.09,3.208 c -0.319,0.949 -0.59,1.819 -0.779,2.618 H -4.718 C -4.737,2.069 -4.787,0.939 -4.848,-0.069 l -0.179,-2.889 h -0.829 l 0.469,6.736 h 1.11 l 1.149,-3.257 c 0.279,-0.831 0.51,-1.57 0.68,-2.27 h 0.029 c 0.17,0.68 0.41,1.42 0.71,2.27 L -0.51,3.778 H 0.6 L 1.02,-2.958 H 0.17 Z"
             style="fill:#ffffff;fill-opacity:1;fill-rule:nonzero;stroke:none"
             id="path170" />
        </g>
        <g
           id="g172"
           transform="translate(60.3366,28.3353)">
          <path
             d="m 0,0 c 0.17,-0.029 0.42,-0.039 0.729,-0.039 0.9,0 1.73,0.329 1.73,1.309 0,0.919 -0.79,1.299 -1.739,1.299 H 0 Z m 0,3.229 h 0.79 c 0.919,0 1.459,0.479 1.459,1.128 0,0.79 -0.6,1.1 -1.479,1.1 -0.4,0 -0.63,-0.029 -0.77,-0.06 z m -0.869,2.758 c 0.38,0.079 0.979,0.14 1.589,0.14 0.869,0 1.429,-0.15 1.848,-0.49 0.351,-0.26 0.561,-0.659 0.561,-1.189 0,-0.649 -0.431,-1.219 -1.14,-1.479 v -0.02 c 0.64,-0.16 1.389,-0.69 1.389,-1.689 0,-0.58 -0.23,-1.02 -0.569,-1.35 -0.47,-0.43 -1.23,-0.629 -2.33,-0.629 -0.599,0 -1.058,0.04 -1.348,0.079 z"
             style="fill:#ffffff;fill-opacity:1;fill-rule:nonzero;stroke:none"
             id="path174" />
        </g>
        <g
           id="g176"
           transform="translate(65.9567,31.2542)">
          <path
             d="m 0,0 h 0.89 c 0.929,0 1.519,0.51 1.519,1.279 0,0.87 -0.63,1.249 -1.55,1.259 C 0.44,2.538 0.14,2.499 0,2.458 Z m -0.869,3.068 c 0.439,0.09 1.069,0.14 1.669,0.14 0.929,0 1.529,-0.17 1.949,-0.55 0.34,-0.3 0.529,-0.759 0.529,-1.279 0,-0.89 -0.559,-1.479 -1.269,-1.719 v -0.03 c 0.519,-0.18 0.83,-0.659 0.99,-1.359 0.22,-0.94 0.379,-1.589 0.52,-1.849 h -0.9 c -0.11,0.189 -0.26,0.769 -0.45,1.609 -0.2,0.93 -0.56,1.28 -1.35,1.309 H 0 v -2.918 h -0.869 z"
             style="fill:#ffffff;fill-opacity:1;fill-rule:nonzero;stroke:none"
             id="path178" />
        </g>
        <g
           id="g180"
           transform="translate(74.1559,30.8343)">
          <path
             d="M 0,0 H -2.619 V -2.429 H 0.3 V -3.158 H -3.488 V 3.578 H 0.149 V 2.849 H -2.619 V 0.72 L 0,0.72 Z"
             style="fill:#ffffff;fill-opacity:1;fill-rule:nonzero;stroke:none"
             id="path182" />
        </g>
        <g
           id="g184"
           transform="translate(78.776,28.3656)">
          <path
             d="m 0,0 c 0.22,-0.04 0.54,-0.05 0.88,-0.05 1.858,0 2.868,1.039 2.868,2.859 C 3.758,4.397 2.858,5.407 1.02,5.407 0.57,5.407 0.23,5.367 0,5.317 Z m -0.869,5.957 c 0.529,0.079 1.159,0.14 1.848,0.14 1.25,0 2.139,-0.289 2.729,-0.84 C 4.308,4.708 4.657,3.928 4.657,2.839 4.657,1.739 4.317,0.84 3.688,0.22 3.059,-0.409 2.02,-0.749 0.71,-0.749 c -0.62,0 -1.14,0.029 -1.579,0.079 z"
             style="fill:#ffffff;fill-opacity:1;fill-rule:nonzero;stroke:none"
             id="path186" />
        </g>
        <g
           id="g188"
           transform="translate(88.2555,30.8343)">
          <path
             d="M 0,0 H -2.619 V -2.429 H 0.3 V -3.158 H -3.488 V 3.578 H 0.149 V 2.849 H -2.619 V 0.72 L 0,0.72 Z"
             style="fill:#ffffff;fill-opacity:1;fill-rule:nonzero;stroke:none"
             id="path190" />
        </g>
        <g
           id="g192"
           transform="translate(92.0065,34.4124)">
          <path
             d="M 0,0 H 0.869 V -6.007 H 3.748 V -6.736 H 0 Z"
             style="fill:#ffffff;fill-opacity:1;fill-rule:nonzero;stroke:none"
             id="path194" />
        </g>
        <g
           id="g196"
           transform="translate(96.8757,34.5228)">
          <path
             d="m 0,0 c -0.229,-0.84 -0.659,-1.909 -0.939,-2.369 l -0.56,-0.07 c 0.22,0.589 0.479,1.628 0.59,2.349 z"
             style="fill:#ffffff;fill-opacity:1;fill-rule:nonzero;stroke:none"
             id="path198" />
        </g>
        <g
           id="g200"
           transform="translate(100.3747,30.4749)">
          <path
             d="m 0,0 -0.659,1.938 c -0.151,0.44 -0.25,0.84 -0.351,1.23 h -0.019 c -0.1,-0.399 -0.21,-0.81 -0.34,-1.22 L -2.028,0 Z m -2.209,-0.68 -0.699,-2.119 h -0.9 l 2.289,6.737 H -0.47 L 1.829,-2.799 H 0.899 L 0.18,-0.68 Z"
             style="fill:#ffffff;fill-opacity:1;fill-rule:nonzero;stroke:none"
             id="path202" />
        </g>
        <g
           id="g204"
           transform="translate(104.2653,31.2542)">
          <path
             d="m 0,0 h 0.89 c 0.929,0 1.519,0.51 1.519,1.279 0,0.87 -0.63,1.249 -1.55,1.259 C 0.44,2.538 0.14,2.499 0,2.458 Z m -0.869,3.068 c 0.439,0.09 1.069,0.14 1.669,0.14 0.929,0 1.529,-0.17 1.949,-0.55 0.34,-0.3 0.529,-0.759 0.529,-1.279 0,-0.89 -0.559,-1.479 -1.269,-1.719 v -0.03 c 0.519,-0.18 0.83,-0.659 0.99,-1.359 0.22,-0.94 0.379,-1.589 0.52,-1.849 h -0.9 c -0.11,0.189 -0.26,0.769 -0.45,1.609 -0.2,0.93 -0.56,1.28 -1.35,1.309 H 0 v -2.918 h -0.869 z"
             style="fill:#ffffff;fill-opacity:1;fill-rule:nonzero;stroke:none"
             id="path206" />
        </g>
        <g
           id="g208"
           transform="translate(112.3239,30.4749)">
          <path
             d="m 0,0 -0.659,1.938 c -0.151,0.44 -0.25,0.84 -0.351,1.23 h -0.019 c -0.1,-0.399 -0.21,-0.81 -0.34,-1.22 L -2.028,0 Z m -2.209,-0.68 -0.699,-2.119 h -0.9 l 2.289,6.737 H -0.47 L 1.829,-2.799 H 0.899 L 0.18,-0.68 Z"
             style="fill:#ffffff;fill-opacity:1;fill-rule:nonzero;stroke:none"
             id="path210" />
        </g>
        <g
           id="g212"
           transform="translate(119.8932,27.8958)">
          <path
             d="m 0,0 c -0.319,-0.16 -0.959,-0.319 -1.779,-0.319 -1.899,0 -3.328,1.199 -3.328,3.408 0,2.108 1.429,3.538 3.518,3.538 0.84,0 1.369,-0.18 1.599,-0.301 L -0.199,5.617 c -0.33,0.16 -0.8,0.279 -1.36,0.279 -1.579,0 -2.628,-1.008 -2.628,-2.778 0,-1.648 0.949,-2.708 2.588,-2.708 0.53,0 1.07,0.11 1.419,0.279 z"
             style="fill:#ffffff;fill-opacity:1;fill-rule:nonzero;stroke:none"
             id="path214" />
        </g>
        <g
           id="g216"
           transform="translate(72.1667,70.6543)">
          <path
             d="M 0,0 H 13"
             style="fill:none;stroke:#ffffff;stroke-width:1;stroke-linecap:butt;stroke-linejoin:miter;stroke-miterlimit:4;stroke-dasharray:none;stroke-opacity:1"
             id="path218" />
        </g>
        <g
           id="g220"
           transform="translate(72.1667,19.1143)">
          <path
             d="M 0,0 H 13"
             style="fill:none;stroke:#ffffff;stroke-width:1;stroke-linecap:butt;stroke-linejoin:miter;stroke-miterlimit:4;stroke-dasharray:none;stroke-opacity:1"
             id="path222" />
        </g>
      </g>
    </g>
  </g>
</svg>
